<svg width="16" height="16" viewBox="0 0 16 16" fill="none" xmlns="http://www.w3.org/2000/svg">
<path fill-rule="evenodd" clip-rule="evenodd" d="M5.26439 0C5.5684 0 5.81485 0.246451 5.81485 0.550464C5.81485 0.678543 5.9111 0.788882 6.04271 0.814465L6.10111 0.820045L6.74926 0.820049C7.72146 0.823519 8.52047 1.56836 8.58696 2.51801L8.59141 2.63774V2.67752C9.18515 2.68097 9.78272 2.68761 10.3842 2.69744L10.5444 2.70045C12.7297 2.78022 14.3335 4.40289 14.3335 6.58201V9.42583C14.3335 11.6612 12.6467 13.3105 10.3845 13.3104C8.56837 13.3411 6.75861 13.3408 4.95891 13.3105C2.68737 13.3105 1 11.6611 1 9.42583V6.58201C1 4.3467 2.68737 2.69737 4.9495 2.69745L6.01928 2.68289C6.50705 2.67794 6.99744 2.67525 7.49049 2.6748L7.49049 2.64029C7.48879 2.27429 7.20379 1.96905 6.83404 1.92613L6.7473 1.92097H6.10111C5.33744 1.92097 4.71393 1.30988 4.71393 0.550464C4.71393 0.246451 4.96038 0 5.26439 0ZM6.28451 6.78408C6.24806 6.5154 6.01775 6.30831 5.73907 6.30831C5.43506 6.30831 5.18861 6.55476 5.18861 6.85877V7.45368H4.57062L4.49593 7.4587C4.22725 7.49515 4.02016 7.72546 4.02016 8.00414C4.02016 8.30815 4.26661 8.55461 4.57062 8.55461H5.18861V9.14932L5.19363 9.22401C5.23008 9.49269 5.46039 9.69978 5.73907 9.69978C6.04308 9.69978 6.28954 9.45333 6.28954 9.14932V8.55461H6.90771L6.98241 8.54958C7.25109 8.51313 7.45818 8.28282 7.45818 8.00414C7.45818 7.70013 7.21172 7.45368 6.90771 7.45368H6.28954V6.85877L6.28451 6.78408ZM9.72554 6.378C10.0296 6.378 10.276 6.62445 10.276 6.92847C10.276 7.20714 10.0689 7.43745 9.80024 7.4739L9.72554 7.47893H9.6601C9.35608 7.47893 9.10963 7.23248 9.10963 6.92847C9.10963 6.64979 9.31672 6.41948 9.5854 6.38303L9.6601 6.378H9.72554ZM11.3852 9.11472C11.3852 8.81071 11.1388 8.56426 10.8348 8.56426H10.7693L10.6946 8.56928C10.4259 8.60573 10.2188 8.83604 10.2188 9.11472C10.2188 9.41873 10.4653 9.66518 10.7693 9.66518H10.8348L10.9095 9.66016C11.1781 9.62371 11.3852 9.3934 11.3852 9.11472ZM10.3662 3.79812L10.3752 3.7982C12.0439 3.7982 13.2325 4.96053 13.2325 6.58191V9.42573C13.2325 11.0475 12.0441 12.2094 10.3752 12.2094C8.56221 12.2401 6.76483 12.2397 4.96817 12.2095C3.28985 12.2094 2.10093 11.0473 2.10093 9.42573V6.58191C2.10093 4.96031 3.28985 3.7982 4.95891 3.7982C6.73181 3.76797 8.53053 3.76813 10.3662 3.79812Z" fill="#696969"/>
</svg>
