<svg width="16" height="16" viewBox="0 0 16 16" fill="none" xmlns="http://www.w3.org/2000/svg">
<path d="M7.16408 1.84145C7.51546 1.164 8.4845 1.164 8.83588 1.84145L10.2587 4.58456C10.3907 4.83903 10.6314 5.01952 10.9126 5.0749L13.9061 5.66432C14.6232 5.80552 14.9131 6.67434 14.4244 7.21783L12.2795 9.60329C12.0972 9.80598 12.0117 10.0777 12.0451 10.3482L12.3962 13.1932C12.4962 14.003 11.589 14.548 10.9209 14.0795L8.54069 12.41C8.21615 12.1824 7.78381 12.1824 7.45927 12.41L5.07901 14.0795C4.41097 14.548 3.50381 14.003 3.60374 13.1932L3.95484 10.3482C3.98822 10.0777 3.90275 9.80598 3.72049 9.60329L1.57558 7.21783C1.08689 6.67433 1.37675 5.80552 2.09388 5.66432L5.08732 5.0749C5.36859 5.01952 5.60931 4.83903 5.7413 4.58456L7.16408 1.84145Z" stroke="#FFC000" stroke-width="1.5" stroke-linecap="round" stroke-linejoin="round"/>
</svg>
